<svg t="1710513629054" class="icon" viewBox="0 0 1108 1024" version="1.1" xmlns="http://www.w3.org/2000/svg" p-id="9584" width="256" height="256"><path d="M1.64008 0h1024v1024H1.64008z" fill="#FFFFFF" fill-opacity="0" p-id="9585"></path><path d="M549.055652 104.935824l216.404617 81.662119 111.103463 163.75404 29.441343 292.479329-78.008814 125.716684-53.295278 81.87702v66.833998l-423.353621-5.587409-175.573557-122.92298-80.802518-158.811332-26.647639-224.78573 96.705141-169.771248 159.456034-114.112067 181.590766-23.639035 42.980063 7.306611z" fill="#00C456" p-id="9586"></path><path d="M388.675547 538.110388c-28.151941 0-34.16915-16.332424-34.16915-29.871144v-53.295278c0-13.53872 5.802308-29.871144 34.16915-29.871143s34.16915 16.332424 34.16915 29.871143v53.295278c0 13.53872-6.017209 29.871144-34.16915 29.871144zM570.911014 641.47744l0.429801 0.2149c2.363903 2.363903 3.868206 5.372508 3.868205 8.810913 0 3.223505-0.859601 6.232109-2.578803 9.025813a102.915761 102.915761 0 0 1-81.232319 41.905561 99.971626 99.971626 0 0 1-80.157818-41.905561c-4.298006-5.372508-3.653305-13.108919 1.289402-17.836726a10.959916 10.959916 0 0 1 7.521511-3.223505c3.653305 0 6.87681 1.719203 9.025813 4.512907 14.613221 20.20063 37.607555 32.449948 62.535992 32.879748 24.928437-0.2149 48.352571-12.464218 62.750892-33.094648 2.149003-2.793704 5.587408-4.512907 9.025813-4.512907 2.578804 0.429801 5.372508 1.289402 7.521511 3.223505z" fill="#333333" p-id="9587"></path><path d="M491.182997 50.931375C743.690867 50.716474 948.490867 255.516474 948.705767 508.024344c0 117.335572-45.129066 230.373137-125.931584 315.473662l33.95425 69.197902c10.959916 13.32382 13.32382 31.590346 5.802308 47.063169s-22.994334 25.573137-40.401259 25.788037h-330.946485C238.675127 965.547114 33.875127 760.747114 33.875127 508.239244S238.675127 50.931375 491.182997 50.931375z m0.429801 72.636306C279.291287 125.716684 108.875337 299.571039 111.02434 511.89255c2.149003 209.312907 171.275551 378.439454 380.588458 380.588457h263.682686c-20.20063-38.467156-14.828122-85.530325 13.53872-118.410073 146.991815-153.009024 142.264008-396.06128-10.745016-543.267996a384.456663 384.456663 0 0 0-266.47639-107.235257z" fill="#333333" p-id="9588"></path><path d="M593.690447 538.110388c-28.151941 0-34.16915-16.332424-34.16915-29.871144v-53.295278c0.644701-24.713536 19.126128-29.871144 34.16915-29.871143 28.151941 0 34.16915 16.332424 34.16915 29.871143v53.295278c0 13.53872-6.017209 29.871144-34.16915 29.871144z" fill="#333333" p-id="9589"></path></svg>